<svg xmlns="http://www.w3.org/2000/svg" xmlns:xlink="http://www.w3.org/1999/xlink" version="1.1" x="0px" y="0px" viewBox="0 0 100 125" enable-background="new 0 0 100 100" xml:space="preserve"><path d="M69.459,28.001c-1.305,0-2.52,0.388-3.541,1.05v-3.488c0-3.608-2.936-6.543-6.543-6.543c-1.377,0-2.654,0.43-3.709,1.159  c-0.66-2.913-3.265-5.097-6.374-5.097c-3.461,0-6.295,2.702-6.522,6.104c-1.026-0.67-2.25-1.064-3.565-1.064  c-3.608,0-6.543,2.935-6.543,6.543v14.58c-1.852-1.489-4.075-2.186-5.814-1.813c-4.27,0.911-4.27,5.796-4.27,7.402v10.873  c0,14.729,11.984,26.711,26.714,26.711c14.728,0,26.71-11.982,26.71-26.711V34.544C76.002,30.937,73.066,28.001,69.459,28.001z   M55.832,25.563c0-1.954,1.59-3.543,3.543-3.543s3.543,1.589,3.543,3.543v21.03c-2.346-0.524-4.709-0.93-7.086-1.211V25.563z   M45.748,21.623c0-1.952,1.59-3.541,3.544-3.541c1.952,0,3.54,1.588,3.54,3.541v23.471c-2.353-0.177-4.715-0.238-7.084-0.177V21.623  z M73.002,57.707c0,13.074-10.637,23.711-23.71,23.711c-13.076,0-23.714-10.637-23.714-23.711V46.834  c0-3.581,0.958-4.268,1.896-4.468c0.689-0.146,2.022,0.176,3.325,1.229c1.167,0.944,1.863,2.155,1.863,3.239v6.686  c0,0.828,0.671,1.5,1.5,1.5c6.755,0,12.25,5.495,12.25,12.25c0,0.828,0.671,1.5,1.5,1.5s1.5-0.672,1.5-1.5  c0-7.902-6.043-14.418-13.75-15.174v-25.43c0-1.954,1.589-3.543,3.543-3.543s3.543,1.589,3.543,3.543v18.393  c-0.474,0.032-0.948,0.05-1.422,0.091c-0.825,0.072-1.436,0.8-1.363,1.625c0.072,0.826,0.804,1.438,1.625,1.363  c8.558-0.748,17.073,0.114,25.302,2.569c0.144,0.043,0.288,0.063,0.429,0.063c0.646,0,1.243-0.42,1.438-1.071  c0.236-0.794-0.215-1.629-1.009-1.866c-0.607-0.181-1.22-0.335-1.829-0.499V34.544c0-1.954,1.588-3.543,3.541-3.543  s3.543,1.589,3.543,3.543V57.707z"/><text x="0" y="115" fill="#000000" font-size="5px" font-weight="bold" font-family="'Helvetica Neue', Helvetica, Arial-Unicode, Arial, Sans-serif">Created by Sergey Demushkin</text><text x="0" y="120" fill="#000000" font-size="5px" font-weight="bold" font-family="'Helvetica Neue', Helvetica, Arial-Unicode, Arial, Sans-serif">from the Noun Project</text></svg>