<svg xmlns="http://www.w3.org/2000/svg" xmlns:xlink="http://www.w3.org/1999/xlink" version="1.1" x="0px" y="0px" viewBox="0 0 100 125" enable-background="new 0 0 100 100" xml:space="preserve"><path d="M76.141,63.37c-0.095-1.736-0.003-3.512-0.461-5.204c-0.494-1.825-1.493-3.471-2.782-4.843  c0-4.339,0.112-8.685-0.032-13.022c-0.105-3.15-0.243-6.579-1.588-9.487c-1.271-2.749-3.721-4.287-6.717-4.474  c-3.257-0.203-6.304,0.969-7.794,4c-2.447-4.35-9.097-4.43-11.996-0.517c-2.925-4.277-9.138-3.36-11.596,0.87  c-3.151-2.346-7.603-1.726-9.733,1.674c-1.844,2.941-1.789,6.868-1.21,10.169c-1.274,9.892-2.299,20.457-0.108,30.301  c0.834,3.745,2.236,7.387,4.89,10.231c3.577,3.835,8.658,5.912,13.735,6.834c5.651,1.025,11.586,0.814,17.179-0.465  c4.788-1.095,9.667-3.033,13.119-6.647C76.079,77.519,76.518,70.254,76.141,63.37C76.089,62.421,76.473,69.417,76.141,63.37z   M63.967,29.173c1.569,0.027,3.161,0.476,4.193,1.728c1.157,1.402,1.395,3.328,1.448,5.08c0.141,4.55-1.161,8.991-3.292,12.983  c-2.803-1.19-5.788-1.932-8.799-2.357c0.816-4.702,0.834-8.519,0.73-10.729C58.841,31.771,59.618,29.102,63.967,29.173  C67.387,29.233,59.618,29.102,63.967,29.173z M70.064,47.568c-0.006,1.125-0.013,2.25-0.018,3.375  c-0.373-0.247-0.764-0.486-1.168-0.717C69.328,49.373,69.721,48.479,70.064,47.568C70.062,47.96,69.721,48.479,70.064,47.568z   M50.316,29.846c3.24-0.088,4.486,1.419,5.069,6.223l0.016,0.131c0.085,2.103,0.049,5.706-0.73,10.102  c-3.057-0.214-6.07-0.074-8.634,0.456l-0.039-12.457l0.109-0.608C46.177,33.31,46.876,29.944,50.316,29.846  C53.557,29.758,46.876,29.944,50.316,29.846z M39.397,29.847c2.512,0,3.429,2.043,3.742,3.143l0.045,14.603  c-2.415,0.965-4.462,2.765-4.373,5.572c-2.968-1.672-3.657-5.956-3.978-9.016c-0.351-3.339-0.268-6.747,0.107-10.081l0.136-0.564  C35.112,33.354,35.995,29.847,39.397,29.847C41.909,29.847,35.995,29.847,39.397,29.847z M27.253,32.566  c1.717-0.945,3.573-0.344,4.876,0.993c-0.341,2.956-0.984,10.975,1.127,16.709c-0.527,2.575-3.168,2.173-4.674,0.757  c-1.637-1.539-2.441-3.873-2.978-5.995c-0.633-2.507-1.02-5.208-0.771-7.792C25.002,35.48,25.566,33.449,27.253,32.566  C27.889,32.216,25.207,33.637,27.253,32.566z M64.702,83.994c-4.482,2.369-9.654,3.43-14.687,3.66  c-5.115,0.234-10.473-0.375-15.17-2.519c-4.192-1.913-7.35-5.063-8.931-9.41c-1.43-3.931-1.903-8.182-2.067-12.338  c-0.186-4.708,0.067-9.429,0.505-14.116c0.935,2.042,2.255,4.114,4.265,5.238c2.167,1.212,4.772,0.997,6.306-1.077  c1.321,1.752,3.203,2.904,5.398,3.145c2.878,3.011,9.391,4.447,14.017,5.109c-4.252,2.862-9.98,8.995-10.873,21.503l2.848,0.203  c1.265-17.708,12.948-21.098,13.44-21.232l8.604-2.275l-8.886-0.53c-4.313-0.258-8.765-0.933-12.85-2.375  c-1.53-0.54-3.278-1.229-4.359-2.5c-1.297-1.528-0.288-3.147,1.21-3.915c1.867-0.956,4.081-1.268,6.146-1.424  c2.942-0.221,5.918-0.022,8.818,0.498c2.913,0.523,5.82,1.393,8.45,2.765c2.434,1.269,4.797,3.108,5.801,5.751  c0.611,1.61,0.492,3.327,0.583,5.018c0.073,1.385,0.153,2.77,0.161,4.156c0.017,3.004-0.294,6.06-1.44,8.861  C70.587,79.619,67.957,82.273,64.702,83.994C57.156,87.982,74.141,79.004,64.702,83.994z"/><text x="0" y="115" fill="#000000" font-size="5px" font-weight="bold" font-family="'Helvetica Neue', Helvetica, Arial-Unicode, Arial, Sans-serif">Created by Jamil Ramirez</text><text x="0" y="120" fill="#000000" font-size="5px" font-weight="bold" font-family="'Helvetica Neue', Helvetica, Arial-Unicode, Arial, Sans-serif">from the Noun Project</text></svg>