<svg xmlns="http://www.w3.org/2000/svg" xmlns:xlink="http://www.w3.org/1999/xlink" version="1.1" x="0px" y="0px" viewBox="0 0 100 125" enable-background="new 0 0 100 100" xml:space="preserve"><path d="M68.422,45.117V22.353c0-3.727-3.033-6.76-6.76-6.76s-6.758,3.033-6.758,6.76v17.252L44.803,22.818  c-1.215-2.021-3.434-3.274-5.795-3.274c-1.223,0-2.428,0.335-3.479,0.968c-1.547,0.93-2.641,2.407-3.076,4.16  c-0.436,1.752-0.162,3.568,0.768,5.116l5.949,9.885c-1.092,0.063-2.156,0.375-3.1,0.942c-1.549,0.931-2.641,2.408-3.076,4.161  c-0.217,0.871-0.256,1.76-0.129,2.623c-0.072-0.004-0.145-0.016-0.219-0.016c-1.223,0-2.426,0.336-3.479,0.968  c-1.547,0.932-2.639,2.408-3.074,4.16c-0.438,1.754-0.164,3.57,0.768,5.117l2.549,4.236c-0.006,0.061-0.018,0.119-0.018,0.182  c0,12.33,10.029,22.359,22.359,22.359c12.328,0,22.357-10.029,22.357-22.359v-8.305C74.109,49.879,71.764,46.557,68.422,45.117z   M61.662,19.21c1.734,0,3.145,1.409,3.145,3.143v22.006c-0.029,0-0.057-0.004-0.086-0.004H58.52V22.353  C58.52,20.619,59.93,19.21,61.662,19.21z M35.963,25.544c0.203-0.814,0.709-1.501,1.43-1.934c0.49-0.295,1.049-0.451,1.615-0.451  c1.115,0,2.123,0.569,2.697,1.523l11.838,19.672h-0.049c-2.002,0-3.449,0-4.656,0.703c-0.629,0.367-1.057,0.857-1.359,1.408  L36.32,27.924C35.887,27.204,35.76,26.359,35.963,25.544z M36.504,45.648c0.203-0.815,0.711-1.502,1.43-1.935  c0.49-0.295,1.049-0.451,1.615-0.451c1.115,0,2.123,0.569,2.697,1.523l5.107,8.483c0.893,1.484,0.412,3.42-1.074,4.313  c-0.488,0.295-1.047,0.451-1.613,0.451c-1.117,0-2.125-0.57-2.699-1.523l-5.105-8.481C36.428,47.308,36.301,46.463,36.504,45.648z   M29.602,53.385c0.203-0.814,0.711-1.502,1.432-1.936C31.521,51.156,32.08,51,32.646,51c1.115,0,2.125,0.568,2.699,1.523  l5.105,8.482c0.432,0.719,0.559,1.563,0.357,2.377c-0.203,0.816-0.711,1.502-1.432,1.936c-0.488,0.297-1.047,0.451-1.613,0.451  c0,0,0,0-0.002,0c-1.113,0-2.123-0.568-2.697-1.523l-5.105-8.482C29.525,55.045,29.398,54.201,29.602,53.385z M70.494,62.047  c0,10.336-8.408,18.744-18.742,18.744c-8.146,0-15.076-5.232-17.654-12.506c1.08,0.697,2.348,1.102,3.664,1.102c0,0,0,0,0.002,0  c1.223,0,2.428-0.336,3.48-0.971c1.547-0.93,2.639-2.408,3.072-4.16c0.217-0.871,0.258-1.76,0.131-2.621  c0.072,0.002,0.145,0.014,0.217,0.014c0.002,0,0,0,0.002,0c1.223,0,2.426-0.334,3.479-0.969c1.271-0.764,2.193-1.887,2.73-3.158  c0.547,0.381,1.123,0.723,1.746,0.98c-1.654,1.707-2.676,4.027-2.676,6.586c0,0.998,0.809,1.809,1.807,1.809  s1.809-0.811,1.809-1.809c0-3.24,2.637-5.877,5.877-5.877c0.998,0,1.807-0.809,1.807-1.807s-0.809-1.809-1.807-1.809h-3.246  c-3.182,0-5.771-2.59-5.771-5.773c0-1.359,0.229-1.633,0.229-1.635c0.273-0.218,1.76-0.218,2.85-0.218h11.223  c3.184,0,5.773,2.589,5.773,5.772V62.047z"/><text x="0" y="115" fill="#000000" font-size="5px" font-weight="bold" font-family="'Helvetica Neue', Helvetica, Arial-Unicode, Arial, Sans-serif">Created by Sergey Demushkin</text><text x="0" y="120" fill="#000000" font-size="5px" font-weight="bold" font-family="'Helvetica Neue', Helvetica, Arial-Unicode, Arial, Sans-serif">from the Noun Project</text></svg>